<?xml version="1.0" encoding="UTF-8" standalone="no"?>
<!-- Created with Inkscape (http://www.inkscape.org/) -->

<svg
   width="500"
   height="106.71163"
   viewBox="0 0 132.29167 28.234119"
   version="1.1"
   id="svg5"
   xmlns:inkscape="http://www.inkscape.org/namespaces/inkscape"
   xmlns:sodipodi="http://sodipodi.sourceforge.net/DTD/sodipodi-0.dtd"
   xmlns="http://www.w3.org/2000/svg"
   xmlns:svg="http://www.w3.org/2000/svg">
  <sodipodi:namedview
     id="namedview7"
     pagecolor="#505050"
     bordercolor="#ffffff"
     borderopacity="1"
     inkscape:showpageshadow="0"
     inkscape:pageopacity="0"
     inkscape:pagecheckerboard="1"
     inkscape:deskcolor="#505050"
     inkscape:document-units="mm"
     showgrid="false"
     showguides="false" />
  <defs
     id="defs2" />
  <g
     inkscape:label="Layer 1"
     inkscape:groupmode="layer"
     id="layer1"
     transform="translate(3.2885185e-7,-1.2820392e-5)">
    <g
       aria-label="Wallock"
       id="text63"
       style="font-size:3.175px;stroke-width:0.264583"
       transform="matrix(12.005252,0,0,12.005252,-918.41017,-1129.1173)">
      <g
         id="g420"
         inkscape:export-filename="g420.svg"
         inkscape:export-xdpi="96"
         inkscape:export-ydpi="96">
        <path
           d="m 78.722269,95.737114 c 0,0.09198 -0.01757,0.1788 -0.05271,0.260449 -0.03411,0.08061 -0.08165,0.151412 -0.142627,0.21239 -0.05995,0.05995 -0.130743,0.107489 -0.21239,0.142627 -0.08062,0.03411 -0.166915,0.05116 -0.258899,0.05116 -0.08268,0 -0.162264,-0.01447 -0.238745,-0.04341 -0.07545,-0.02894 -0.143661,-0.07131 -0.204639,-0.127124 -0.06098,0.05581 -0.12971,0.09819 -0.206189,0.127124 -0.07648,0.02894 -0.156063,0.04341 -0.238745,0.04341 -0.09198,0 -0.1788,-0.01705 -0.260449,-0.05116 -0.08061,-0.03514 -0.151412,-0.08268 -0.212391,-0.142627 -0.05995,-0.06098 -0.107489,-0.131777 -0.142626,-0.21239 -0.03411,-0.08165 -0.05116,-0.168465 -0.05116,-0.260449 v -1.5875 h 0.444934 v 1.5875 c 0,0.03101 0.0057,0.06046 0.01705,0.08837 0.01137,0.02687 0.02687,0.05064 0.04651,0.07131 0.02067,0.01964 0.04444,0.03514 0.07131,0.04651 0.02687,0.01137 0.05581,0.01705 0.08682,0.01705 0.03101,0 0.05995,-0.0057 0.08682,-0.01705 0.02687,-0.01137 0.05013,-0.02687 0.06976,-0.04651 0.02067,-0.02067 0.03669,-0.04444 0.04806,-0.07131 0.01137,-0.02791 0.01705,-0.05736 0.01705,-0.08837 v -1.5875 h 0.444934 v 1.5875 c 0,0.03101 0.0057,0.06046 0.01705,0.08837 0.01137,0.02687 0.02687,0.05064 0.04651,0.07131 0.02067,0.01964 0.04444,0.03514 0.07131,0.04651 0.02687,0.01137 0.05581,0.01705 0.08682,0.01705 0.03101,0 0.05995,-0.0057 0.08682,-0.01705 0.02687,-0.01137 0.05013,-0.02687 0.06976,-0.04651 0.02067,-0.02067 0.03669,-0.04444 0.04806,-0.07131 0.0124,-0.02791 0.0186,-0.05736 0.0186,-0.08837 v -1.5875 h 0.443384 z"
           style="font-family:Righteous;-inkscape-font-specification:Righteous"
           id="path162"
           sodipodi:nodetypes="scscsccsscccsccsccsssscsccsccsssscsccs" />
        <path
           d="m 80.660135,96.372734 h -0.102319 l -0.164332,-0.227893 q -0.06046,0.05426 -0.128674,0.102319 -0.06666,0.04651 -0.141076,0.08217 -0.07442,0.03411 -0.153479,0.05426 -0.07751,0.02015 -0.15813,0.02015 -0.175183,0 -0.330213,-0.05891 -0.153479,-0.05891 -0.269751,-0.170532 -0.114721,-0.113172 -0.181384,-0.275953 -0.06666,-0.16278 -0.06666,-0.37052 0,-0.193786 0.06666,-0.355017 0.06666,-0.16278 0.181384,-0.279052 0.116272,-0.116272 0.269751,-0.179834 0.15503,-0.06511 0.330213,-0.06511 0.08062,0 0.15968,0.02015 0.07906,0.02015 0.153479,0.05581 0.07441,0.03566 0.141076,0.08371 0.06821,0.04806 0.127124,0.10387 l 0.164332,-0.196887 h 0.102319 z m -0.426331,-0.84491 q 0,-0.08682 -0.03411,-0.167431 -0.03256,-0.08217 -0.08992,-0.144177 -0.05736,-0.06356 -0.134876,-0.10077 -0.07596,-0.03876 -0.16278,-0.03876 -0.08682,0 -0.164331,0.02946 -0.07597,0.02945 -0.133326,0.08682 -0.05581,0.05736 -0.08837,0.142627 -0.03256,0.08372 -0.03256,0.192236 0,0.108521 0.03256,0.193787 0.03256,0.08372 0.08837,0.141077 0.05736,0.05736 0.133326,0.08682 0.07751,0.02946 0.164331,0.02946 0.08682,0 0.16278,-0.03721 0.07751,-0.03876 0.134876,-0.100769 0.05736,-0.06356 0.08992,-0.144178 0.03411,-0.08216 0.03411,-0.168982 z"
           style="font-family:Righteous;-inkscape-font-specification:Righteous"
           id="path164" />
        <path
           d="m 81.408926,96.372734 h -0.42633 v -2.320788 h 0.42633 z"
           style="font-family:Righteous;-inkscape-font-specification:Righteous"
           id="path166" />
        <path
           d="m 82.157718,96.372734 h -0.42633 v -2.320788 h 0.42633 z"
           style="font-family:Righteous;-inkscape-font-specification:Righteous"
           id="path168" />
        <path
           d="m 84.084732,95.527824 q 0,0.186036 -0.06666,0.347266 -0.06666,0.15968 -0.181384,0.277502 -0.114722,0.116272 -0.269751,0.184485 -0.153479,0.06666 -0.330212,0.06666 -0.175183,0 -0.330213,-0.06666 -0.153479,-0.06821 -0.269751,-0.184485 -0.114721,-0.117822 -0.181384,-0.277502 -0.06666,-0.16123 -0.06666,-0.347266 0,-0.189135 0.06666,-0.350366 0.06666,-0.16123 0.181384,-0.277502 0.116272,-0.117822 0.269751,-0.184485 0.15503,-0.06666 0.330213,-0.06666 0.176733,0 0.330212,0.06356 0.155029,0.06201 0.269751,0.178284 0.114722,0.114722 0.181384,0.277502 0.06666,0.161231 0.06666,0.359668 z m -0.426331,0 q 0,-0.102319 -0.03411,-0.184484 -0.03256,-0.08372 -0.08992,-0.142627 -0.05736,-0.06046 -0.134876,-0.09147 -0.07596,-0.03256 -0.16278,-0.03256 -0.08682,0 -0.164331,0.03256 -0.07596,0.03101 -0.133326,0.09147 -0.05581,0.05891 -0.08837,0.142627 -0.03256,0.08217 -0.03256,0.184484 0,0.09612 0.03256,0.178284 0.03256,0.08217 0.08837,0.142627 0.05736,0.06046 0.133326,0.09612 0.07751,0.03411 0.164331,0.03411 0.08682,0 0.16278,-0.03256 0.07752,-0.03256 0.134876,-0.09147 0.05736,-0.05891 0.08992,-0.142627 0.03411,-0.08372 0.03411,-0.184484 z"
           style="font-family:Righteous;-inkscape-font-specification:Righteous"
           id="path170" />
        <path
           d="m 85.7699,95.042583 -0.310058,0.311609 q -0.02325,-0.06511 -0.06356,-0.116272 -0.04031,-0.05271 -0.09147,-0.08837 -0.04961,-0.03566 -0.10852,-0.05426 -0.05891,-0.0186 -0.120923,-0.0186 -0.08682,0 -0.164331,0.03566 -0.07596,0.03566 -0.133325,0.100769 -0.05581,0.06356 -0.08837,0.151929 -0.03256,0.08837 -0.03256,0.195337 0,0.08682 0.03256,0.16278 0.03256,0.07596 0.08837,0.133326 0.05736,0.05736 0.133325,0.08992 0.07751,0.03256 0.164331,0.03256 0.06201,0 0.119373,-0.01705 0.05736,-0.01705 0.10697,-0.04806 0.05116,-0.03256 0.08992,-0.07751 0.04031,-0.04651 0.06511,-0.10232 l 0.310059,0.311609 q -0.05891,0.08372 -0.136426,0.150379 -0.07596,0.06666 -0.165881,0.113171 -0.08837,0.04651 -0.187586,0.06976 -0.09767,0.02481 -0.201538,0.02481 -0.175183,0 -0.330212,-0.06511 -0.153479,-0.06666 -0.269751,-0.181385 -0.114722,-0.114721 -0.181385,-0.2682 -0.06666,-0.153479 -0.06666,-0.328662 0,-0.190686 0.06666,-0.356568 0.06666,-0.165881 0.181385,-0.288354 0.116272,-0.124024 0.269751,-0.195337 0.155029,-0.07131 0.330212,-0.07131 0.10387,0 0.203088,0.02635 0.100769,0.02635 0.190686,0.07752 0.09147,0.04961 0.167432,0.122473 0.07752,0.07286 0.133325,0.167432 z"
           style="font-family:Righteous;-inkscape-font-specification:Righteous"
           id="path172" />
        <path
           d="m 86.40242,96.372734 h -0.42633 v -2.320788 h 0.42633 v 1.463476 l 0.63097,-0.799951 h 0.486792 l -0.550354,0.691431 0.550354,0.965832 H 87.03339 L 86.696976,95.76967 86.40242,96.160344 Z"
           style="font-family:Righteous;-inkscape-font-specification:Righteous"
           id="path174" />
      </g>
    </g>
  </g>
</svg>
